<svg xmlns="http://www.w3.org/2000/svg" width="760" height="410" viewBox="0 0 760 410"><rect width="100%" height="100%" fill="white"/><text x="62" y="60" font-family="sans-serif" fill="#1e293b" font-size="18" font-weight="600">近20日资金利率分层</text><line x1="62" y1="107" x2="62" y2="365" stroke="#94a3b8"/><line x1="62" y1="365" x2="732" y2="365" stroke="#94a3b8"/><line x1="62" y1="365.0" x2="732" y2="365.0" stroke="#e8edf2"/><text x="53" y="369.0" text-anchor="end" font-family="sans-serif" fill="#64748b" font-size="12">1.36</text><line x1="62" y1="300.5" x2="732" y2="300.5" stroke="#e8edf2"/><text x="53" y="304.5" text-anchor="end" font-family="sans-serif" fill="#64748b" font-size="12">1.45</text><line x1="62" y1="236.0" x2="732" y2="236.0" stroke="#e8edf2"/><text x="53" y="240.0" text-anchor="end" font-family="sans-serif" fill="#64748b" font-size="12">1.53</text><line x1="62" y1="171.5" x2="732" y2="171.5" stroke="#e8edf2"/><text x="53" y="175.5" text-anchor="end" font-family="sans-serif" fill="#64748b" font-size="12">1.62</text><line x1="62" y1="107.0" x2="732" y2="107.0" stroke="#e8edf2"/><text x="53" y="111.0" text-anchor="end" font-family="sans-serif" fill="#64748b" font-size="12">1.70</text><text x="732" y="60" text-anchor="end" font-family="sans-serif" fill="#64748b" font-size="12">%</text><polyline points="62.0,198.6 97.3,183.3 132.5,267.3 167.8,259.7 203.1,259.7 238.3,259.7 273.6,274.9 308.8,221.5 344.1,241.6 379.4,255.8 414.6,255.6 449.9,282.6 485.2,220.1 520.4,259.7 555.7,282.6 590.9,259.7 626.2,290.2 661.5,297.8 696.7,313.1 732.0,320.7" fill="none" stroke="#245b85" stroke-width="2.4"/><circle cx="62.0" cy="198.6" r="2.8" fill="white" stroke="#245b85" stroke-width="1.5"/><circle cx="97.3" cy="183.3" r="2.8" fill="white" stroke="#245b85" stroke-width="1.5"/><circle cx="132.5" cy="267.3" r="2.8" fill="white" stroke="#245b85" stroke-width="1.5"/><circle cx="167.8" cy="259.7" r="2.8" fill="white" stroke="#245b85" stroke-width="1.5"/><circle cx="203.1" cy="259.7" r="2.8" fill="white" stroke="#245b85" stroke-width="1.5"/><circle cx="238.3" cy="259.7" r="2.8" fill="white" stroke="#245b85" stroke-width="1.5"/><circle cx="273.6" cy="274.9" r="2.8" fill="white" stroke="#245b85" stroke-width="1.5"/><circle cx="308.8" cy="221.5" r="2.8" fill="white" stroke="#245b85" stroke-width="1.5"/><circle cx="344.1" cy="241.6" r="2.8" fill="white" stroke="#245b85" stroke-width="1.5"/><circle cx="379.4" cy="255.8" r="2.8" fill="white" stroke="#245b85" stroke-width="1.5"/><circle cx="414.6" cy="255.6" r="2.8" fill="white" stroke="#245b85" stroke-width="1.5"/><circle cx="449.9" cy="282.6" r="2.8" fill="white" stroke="#245b85" stroke-width="1.5"/><circle cx="485.2" cy="220.1" r="2.8" fill="white" stroke="#245b85" stroke-width="1.5"/><circle cx="520.4" cy="259.7" r="2.8" fill="white" stroke="#245b85" stroke-width="1.5"/><circle cx="555.7" cy="282.6" r="2.8" fill="white" stroke="#245b85" stroke-width="1.5"/><circle cx="590.9" cy="259.7" r="2.8" fill="white" stroke="#245b85" stroke-width="1.5"/><circle cx="626.2" cy="290.2" r="2.8" fill="white" stroke="#245b85" stroke-width="1.5"/><circle cx="661.5" cy="297.8" r="2.8" fill="white" stroke="#245b85" stroke-width="1.5"/><circle cx="696.7" cy="313.1" r="2.8" fill="white" stroke="#245b85" stroke-width="1.5"/><circle cx="732.0" cy="320.7" r="2.8" fill="white" stroke="#245b85" stroke-width="1.5"/><text x="62" y="85" font-family="sans-serif" font-size="13" fill="#245b85">FDR007</text><polyline points="62.0,168.1 97.3,152.8 132.5,221.5 167.8,213.9 203.1,213.9 238.3,206.2 273.6,213.9 308.8,183.3 344.1,183.3 379.4,168.1 414.6,145.2 449.9,213.9 485.2,160.4 520.4,183.3 555.7,198.6 590.9,221.5 626.2,213.9 661.5,244.4 696.7,244.4 732.0,244.4" fill="none" stroke="#b58b3b" stroke-width="2.4" stroke-dasharray="7 4"/><circle cx="62.0" cy="168.1" r="2.8" fill="white" stroke="#b58b3b" stroke-width="1.5"/><circle cx="97.3" cy="152.8" r="2.8" fill="white" stroke="#b58b3b" stroke-width="1.5"/><circle cx="132.5" cy="221.5" r="2.8" fill="white" stroke="#b58b3b" stroke-width="1.5"/><circle cx="167.8" cy="213.9" r="2.8" fill="white" stroke="#b58b3b" stroke-width="1.5"/><circle cx="203.1" cy="213.9" r="2.8" fill="white" stroke="#b58b3b" stroke-width="1.5"/><circle cx="238.3" cy="206.2" r="2.8" fill="white" stroke="#b58b3b" stroke-width="1.5"/><circle cx="273.6" cy="213.9" r="2.8" fill="white" stroke="#b58b3b" stroke-width="1.5"/><circle cx="308.8" cy="183.3" r="2.8" fill="white" stroke="#b58b3b" stroke-width="1.5"/><circle cx="344.1" cy="183.3" r="2.8" fill="white" stroke="#b58b3b" stroke-width="1.5"/><circle cx="379.4" cy="168.1" r="2.8" fill="white" stroke="#b58b3b" stroke-width="1.5"/><circle cx="414.6" cy="145.2" r="2.8" fill="white" stroke="#b58b3b" stroke-width="1.5"/><circle cx="449.9" cy="213.9" r="2.8" fill="white" stroke="#b58b3b" stroke-width="1.5"/><circle cx="485.2" cy="160.4" r="2.8" fill="white" stroke="#b58b3b" stroke-width="1.5"/><circle cx="520.4" cy="183.3" r="2.8" fill="white" stroke="#b58b3b" stroke-width="1.5"/><circle cx="555.7" cy="198.6" r="2.8" fill="white" stroke="#b58b3b" stroke-width="1.5"/><circle cx="590.9" cy="221.5" r="2.8" fill="white" stroke="#b58b3b" stroke-width="1.5"/><circle cx="626.2" cy="213.9" r="2.8" fill="white" stroke="#b58b3b" stroke-width="1.5"/><circle cx="661.5" cy="244.4" r="2.8" fill="white" stroke="#b58b3b" stroke-width="1.5"/><circle cx="696.7" cy="244.4" r="2.8" fill="white" stroke="#b58b3b" stroke-width="1.5"/><circle cx="732.0" cy="244.4" r="2.8" fill="white" stroke="#b58b3b" stroke-width="1.5"/><text x="194" y="85" font-family="sans-serif" font-size="13" fill="#b58b3b">FR007</text><polyline points="62.0,204.7 97.3,198.6 132.5,271.1 167.8,268.8 203.1,280.3 238.3,287.1 273.6,309.3 308.8,255.8 344.1,236.0 379.4,242.1 414.6,245.9 449.9,313.1 485.2,219.2 520.4,262.0 555.7,292.5 590.9,279.5 626.2,285.6 661.5,299.4 696.7,324.5 732.0,326.8" fill="none" stroke="#75804b" stroke-width="2.4"/><circle cx="62.0" cy="204.7" r="2.8" fill="white" stroke="#75804b" stroke-width="1.5"/><circle cx="97.3" cy="198.6" r="2.8" fill="white" stroke="#75804b" stroke-width="1.5"/><circle cx="132.5" cy="271.1" r="2.8" fill="white" stroke="#75804b" stroke-width="1.5"/><circle cx="167.8" cy="268.8" r="2.8" fill="white" stroke="#75804b" stroke-width="1.5"/><circle cx="203.1" cy="280.3" r="2.8" fill="white" stroke="#75804b" stroke-width="1.5"/><circle cx="238.3" cy="287.1" r="2.8" fill="white" stroke="#75804b" stroke-width="1.5"/><circle cx="273.6" cy="309.3" r="2.8" fill="white" stroke="#75804b" stroke-width="1.5"/><circle cx="308.8" cy="255.8" r="2.8" fill="white" stroke="#75804b" stroke-width="1.5"/><circle cx="344.1" cy="236.0" r="2.8" fill="white" stroke="#75804b" stroke-width="1.5"/><circle cx="379.4" cy="242.1" r="2.8" fill="white" stroke="#75804b" stroke-width="1.5"/><circle cx="414.6" cy="245.9" r="2.8" fill="white" stroke="#75804b" stroke-width="1.5"/><circle cx="449.9" cy="313.1" r="2.8" fill="white" stroke="#75804b" stroke-width="1.5"/><circle cx="485.2" cy="219.2" r="2.8" fill="white" stroke="#75804b" stroke-width="1.5"/><circle cx="520.4" cy="262.0" r="2.8" fill="white" stroke="#75804b" stroke-width="1.5"/><circle cx="555.7" cy="292.5" r="2.8" fill="white" stroke="#75804b" stroke-width="1.5"/><circle cx="590.9" cy="279.5" r="2.8" fill="white" stroke="#75804b" stroke-width="1.5"/><circle cx="626.2" cy="285.6" r="2.8" fill="white" stroke="#75804b" stroke-width="1.5"/><circle cx="661.5" cy="299.4" r="2.8" fill="white" stroke="#75804b" stroke-width="1.5"/><circle cx="696.7" cy="324.5" r="2.8" fill="white" stroke="#75804b" stroke-width="1.5"/><circle cx="732.0" cy="326.8" r="2.8" fill="white" stroke="#75804b" stroke-width="1.5"/><text x="326" y="85" font-family="sans-serif" font-size="13" fill="#75804b">SHIBOR_7D</text><text x="62.0" y="388" text-anchor="middle" font-family="sans-serif" fill="#64748b" font-size="12">01-29</text><text x="203.1" y="388" text-anchor="middle" font-family="sans-serif" fill="#64748b" font-size="12">02-04</text><text x="344.1" y="388" text-anchor="middle" font-family="sans-serif" fill="#64748b" font-size="12">02-10</text><text x="485.2" y="388" text-anchor="middle" font-family="sans-serif" fill="#64748b" font-size="12">02-24</text><text x="626.2" y="388" text-anchor="middle" font-family="sans-serif" fill="#64748b" font-size="12">03-02</text><text x="732.0" y="388" text-anchor="middle" font-family="sans-serif" fill="#64748b" font-size="12">03-05</text></svg>