<svg xmlns="http://www.w3.org/2000/svg" width="760" height="410" viewBox="0 0 760 410"><rect width="100%" height="100%" fill="white"/><text x="62" y="60" font-family="sans-serif" fill="#1e293b" font-size="18" font-weight="600">国债期货累计表现</text><line x1="62" y1="107" x2="62" y2="365" stroke="#94a3b8"/><line x1="62" y1="365" x2="732" y2="365" stroke="#94a3b8"/><line x1="62" y1="365.0" x2="732" y2="365.0" stroke="#e8edf2"/><text x="53" y="369.0" text-anchor="end" font-family="sans-serif" fill="#64748b" font-size="12">99.08</text><line x1="62" y1="300.5" x2="732" y2="300.5" stroke="#e8edf2"/><text x="53" y="304.5" text-anchor="end" font-family="sans-serif" fill="#64748b" font-size="12">99.50</text><line x1="62" y1="236.0" x2="732" y2="236.0" stroke="#e8edf2"/><text x="53" y="240.0" text-anchor="end" font-family="sans-serif" fill="#64748b" font-size="12">99.93</text><line x1="62" y1="171.5" x2="732" y2="171.5" stroke="#e8edf2"/><text x="53" y="175.5" text-anchor="end" font-family="sans-serif" fill="#64748b" font-size="12">100.35</text><line x1="62" y1="107.0" x2="732" y2="107.0" stroke="#e8edf2"/><text x="53" y="111.0" text-anchor="end" font-family="sans-serif" fill="#64748b" font-size="12">100.77</text><text x="732" y="60" text-anchor="end" font-family="sans-serif" fill="#64748b" font-size="12">指数</text><polyline points="62.0,222.3 97.3,221.1 132.5,221.1 167.8,219.0 203.1,222.3 238.3,220.8 273.6,222.3 308.8,224.1 344.1,225.3 379.4,232.4 414.6,236.9 449.9,237.4 485.2,235.1 520.4,227.3 555.7,226.1 590.9,220.8 626.2,219.9 661.5,224.1 696.7,221.1 732.0,221.1" fill="none" stroke="#245b85" stroke-width="2.4"/><circle cx="62.0" cy="222.3" r="2.8" fill="white" stroke="#245b85" stroke-width="1.5"/><circle cx="97.3" cy="221.1" r="2.8" fill="white" stroke="#245b85" stroke-width="1.5"/><circle cx="132.5" cy="221.1" r="2.8" fill="white" stroke="#245b85" stroke-width="1.5"/><circle cx="167.8" cy="219.0" r="2.8" fill="white" stroke="#245b85" stroke-width="1.5"/><circle cx="203.1" cy="222.3" r="2.8" fill="white" stroke="#245b85" stroke-width="1.5"/><circle cx="238.3" cy="220.8" r="2.8" fill="white" stroke="#245b85" stroke-width="1.5"/><circle cx="273.6" cy="222.3" r="2.8" fill="white" stroke="#245b85" stroke-width="1.5"/><circle cx="308.8" cy="224.1" r="2.8" fill="white" stroke="#245b85" stroke-width="1.5"/><circle cx="344.1" cy="225.3" r="2.8" fill="white" stroke="#245b85" stroke-width="1.5"/><circle cx="379.4" cy="232.4" r="2.8" fill="white" stroke="#245b85" stroke-width="1.5"/><circle cx="414.6" cy="236.9" r="2.8" fill="white" stroke="#245b85" stroke-width="1.5"/><circle cx="449.9" cy="237.4" r="2.8" fill="white" stroke="#245b85" stroke-width="1.5"/><circle cx="485.2" cy="235.1" r="2.8" fill="white" stroke="#245b85" stroke-width="1.5"/><circle cx="520.4" cy="227.3" r="2.8" fill="white" stroke="#245b85" stroke-width="1.5"/><circle cx="555.7" cy="226.1" r="2.8" fill="white" stroke="#245b85" stroke-width="1.5"/><circle cx="590.9" cy="220.8" r="2.8" fill="white" stroke="#245b85" stroke-width="1.5"/><circle cx="626.2" cy="219.9" r="2.8" fill="white" stroke="#245b85" stroke-width="1.5"/><circle cx="661.5" cy="224.1" r="2.8" fill="white" stroke="#245b85" stroke-width="1.5"/><circle cx="696.7" cy="221.1" r="2.8" fill="white" stroke="#245b85" stroke-width="1.5"/><circle cx="732.0" cy="221.1" r="2.8" fill="white" stroke="#245b85" stroke-width="1.5"/><text x="62" y="85" font-family="sans-serif" font-size="13" fill="#245b85">TS</text><polyline points="62.0,205.8 97.3,174.9 132.5,137.3 167.8,137.3 203.1,173.6 238.3,132.0 273.6,173.6 308.8,211.2 344.1,251.5 379.4,306.5 414.6,340.0 449.9,290.4 485.2,252.8 520.4,219.3 555.7,184.3 590.9,184.3 626.2,161.5 661.5,211.2 696.7,230.0 732.0,180.3" fill="none" stroke="#b58b3b" stroke-width="2.4" stroke-dasharray="7 4"/><circle cx="62.0" cy="205.8" r="2.8" fill="white" stroke="#b58b3b" stroke-width="1.5"/><circle cx="97.3" cy="174.9" r="2.8" fill="white" stroke="#b58b3b" stroke-width="1.5"/><circle cx="132.5" cy="137.3" r="2.8" fill="white" stroke="#b58b3b" stroke-width="1.5"/><circle cx="167.8" cy="137.3" r="2.8" fill="white" stroke="#b58b3b" stroke-width="1.5"/><circle cx="203.1" cy="173.6" r="2.8" fill="white" stroke="#b58b3b" stroke-width="1.5"/><circle cx="238.3" cy="132.0" r="2.8" fill="white" stroke="#b58b3b" stroke-width="1.5"/><circle cx="273.6" cy="173.6" r="2.8" fill="white" stroke="#b58b3b" stroke-width="1.5"/><circle cx="308.8" cy="211.2" r="2.8" fill="white" stroke="#b58b3b" stroke-width="1.5"/><circle cx="344.1" cy="251.5" r="2.8" fill="white" stroke="#b58b3b" stroke-width="1.5"/><circle cx="379.4" cy="306.5" r="2.8" fill="white" stroke="#b58b3b" stroke-width="1.5"/><circle cx="414.6" cy="340.0" r="2.8" fill="white" stroke="#b58b3b" stroke-width="1.5"/><circle cx="449.9" cy="290.4" r="2.8" fill="white" stroke="#b58b3b" stroke-width="1.5"/><circle cx="485.2" cy="252.8" r="2.8" fill="white" stroke="#b58b3b" stroke-width="1.5"/><circle cx="520.4" cy="219.3" r="2.8" fill="white" stroke="#b58b3b" stroke-width="1.5"/><circle cx="555.7" cy="184.3" r="2.8" fill="white" stroke="#b58b3b" stroke-width="1.5"/><circle cx="590.9" cy="184.3" r="2.8" fill="white" stroke="#b58b3b" stroke-width="1.5"/><circle cx="626.2" cy="161.5" r="2.8" fill="white" stroke="#b58b3b" stroke-width="1.5"/><circle cx="661.5" cy="211.2" r="2.8" fill="white" stroke="#b58b3b" stroke-width="1.5"/><circle cx="696.7" cy="230.0" r="2.8" fill="white" stroke="#b58b3b" stroke-width="1.5"/><circle cx="732.0" cy="180.3" r="2.8" fill="white" stroke="#b58b3b" stroke-width="1.5"/><text x="194" y="85" font-family="sans-serif" font-size="13" fill="#b58b3b">TL</text><polyline points="62.0,211.0 97.3,200.2 132.5,201.0 167.8,194.5 203.1,200.2 238.3,192.4 273.6,195.9 308.8,206.0 344.1,213.9 379.4,233.3 414.6,246.9 449.9,244.8 485.2,239.0 520.4,218.9 555.7,214.6 590.9,206.0 626.2,203.8 661.5,213.9 696.7,206.0 732.0,203.1" fill="none" stroke="#75804b" stroke-width="2.4"/><circle cx="62.0" cy="211.0" r="2.8" fill="white" stroke="#75804b" stroke-width="1.5"/><circle cx="97.3" cy="200.2" r="2.8" fill="white" stroke="#75804b" stroke-width="1.5"/><circle cx="132.5" cy="201.0" r="2.8" fill="white" stroke="#75804b" stroke-width="1.5"/><circle cx="167.8" cy="194.5" r="2.8" fill="white" stroke="#75804b" stroke-width="1.5"/><circle cx="203.1" cy="200.2" r="2.8" fill="white" stroke="#75804b" stroke-width="1.5"/><circle cx="238.3" cy="192.4" r="2.8" fill="white" stroke="#75804b" stroke-width="1.5"/><circle cx="273.6" cy="195.9" r="2.8" fill="white" stroke="#75804b" stroke-width="1.5"/><circle cx="308.8" cy="206.0" r="2.8" fill="white" stroke="#75804b" stroke-width="1.5"/><circle cx="344.1" cy="213.9" r="2.8" fill="white" stroke="#75804b" stroke-width="1.5"/><circle cx="379.4" cy="233.3" r="2.8" fill="white" stroke="#75804b" stroke-width="1.5"/><circle cx="414.6" cy="246.9" r="2.8" fill="white" stroke="#75804b" stroke-width="1.5"/><circle cx="449.9" cy="244.8" r="2.8" fill="white" stroke="#75804b" stroke-width="1.5"/><circle cx="485.2" cy="239.0" r="2.8" fill="white" stroke="#75804b" stroke-width="1.5"/><circle cx="520.4" cy="218.9" r="2.8" fill="white" stroke="#75804b" stroke-width="1.5"/><circle cx="555.7" cy="214.6" r="2.8" fill="white" stroke="#75804b" stroke-width="1.5"/><circle cx="590.9" cy="206.0" r="2.8" fill="white" stroke="#75804b" stroke-width="1.5"/><circle cx="626.2" cy="203.8" r="2.8" fill="white" stroke="#75804b" stroke-width="1.5"/><circle cx="661.5" cy="213.9" r="2.8" fill="white" stroke="#75804b" stroke-width="1.5"/><circle cx="696.7" cy="206.0" r="2.8" fill="white" stroke="#75804b" stroke-width="1.5"/><circle cx="732.0" cy="203.1" r="2.8" fill="white" stroke="#75804b" stroke-width="1.5"/><text x="326" y="85" font-family="sans-serif" font-size="13" fill="#75804b">TF</text><polyline points="62.0,210.0 97.3,196.0 132.5,192.5 167.8,183.4 203.1,192.5 238.3,181.3 273.6,188.3 308.8,203.7 344.1,219.1 379.4,245.0 414.6,260.4 449.9,252.7 485.2,244.3 520.4,221.9 555.7,211.4 590.9,205.7 626.2,203.6 661.5,219.8 696.7,214.9 732.0,205.8" fill="none" stroke="#a7657b" stroke-width="2.4" stroke-dasharray="7 4"/><circle cx="62.0" cy="210.0" r="2.8" fill="white" stroke="#a7657b" stroke-width="1.5"/><circle cx="97.3" cy="196.0" r="2.8" fill="white" stroke="#a7657b" stroke-width="1.5"/><circle cx="132.5" cy="192.5" r="2.8" fill="white" stroke="#a7657b" stroke-width="1.5"/><circle cx="167.8" cy="183.4" r="2.8" fill="white" stroke="#a7657b" stroke-width="1.5"/><circle cx="203.1" cy="192.5" r="2.8" fill="white" stroke="#a7657b" stroke-width="1.5"/><circle cx="238.3" cy="181.3" r="2.8" fill="white" stroke="#a7657b" stroke-width="1.5"/><circle cx="273.6" cy="188.3" r="2.8" fill="white" stroke="#a7657b" stroke-width="1.5"/><circle cx="308.8" cy="203.7" r="2.8" fill="white" stroke="#a7657b" stroke-width="1.5"/><circle cx="344.1" cy="219.1" r="2.8" fill="white" stroke="#a7657b" stroke-width="1.5"/><circle cx="379.4" cy="245.0" r="2.8" fill="white" stroke="#a7657b" stroke-width="1.5"/><circle cx="414.6" cy="260.4" r="2.8" fill="white" stroke="#a7657b" stroke-width="1.5"/><circle cx="449.9" cy="252.7" r="2.8" fill="white" stroke="#a7657b" stroke-width="1.5"/><circle cx="485.2" cy="244.3" r="2.8" fill="white" stroke="#a7657b" stroke-width="1.5"/><circle cx="520.4" cy="221.9" r="2.8" fill="white" stroke="#a7657b" stroke-width="1.5"/><circle cx="555.7" cy="211.4" r="2.8" fill="white" stroke="#a7657b" stroke-width="1.5"/><circle cx="590.9" cy="205.7" r="2.8" fill="white" stroke="#a7657b" stroke-width="1.5"/><circle cx="626.2" cy="203.6" r="2.8" fill="white" stroke="#a7657b" stroke-width="1.5"/><circle cx="661.5" cy="219.8" r="2.8" fill="white" stroke="#a7657b" stroke-width="1.5"/><circle cx="696.7" cy="214.9" r="2.8" fill="white" stroke="#a7657b" stroke-width="1.5"/><circle cx="732.0" cy="205.8" r="2.8" fill="white" stroke="#a7657b" stroke-width="1.5"/><text x="458" y="85" font-family="sans-serif" font-size="13" fill="#a7657b">T</text><text x="62.0" y="388" text-anchor="middle" font-family="sans-serif" fill="#64748b" font-size="12">05-28</text><text x="203.1" y="388" text-anchor="middle" font-family="sans-serif" fill="#64748b" font-size="12">06-03</text><text x="344.1" y="388" text-anchor="middle" font-family="sans-serif" fill="#64748b" font-size="12">06-09</text><text x="485.2" y="388" text-anchor="middle" font-family="sans-serif" fill="#64748b" font-size="12">06-15</text><text x="626.2" y="388" text-anchor="middle" font-family="sans-serif" fill="#64748b" font-size="12">06-22</text><text x="732.0" y="388" text-anchor="middle" font-family="sans-serif" fill="#64748b" font-size="12">06-25</text></svg>