<svg xmlns="http://www.w3.org/2000/svg" width="760" height="410" viewBox="0 0 760 410"><rect width="100%" height="100%" fill="white"/><text x="62" y="60" font-family="sans-serif" fill="#1e293b" font-size="18" font-weight="600">近20日资金利率分层</text><line x1="62" y1="107" x2="62" y2="365" stroke="#94a3b8"/><line x1="62" y1="365" x2="732" y2="365" stroke="#94a3b8"/><line x1="62" y1="365.0" x2="732" y2="365.0" stroke="#e8edf2"/><text x="53" y="369.0" text-anchor="end" font-family="sans-serif" fill="#64748b" font-size="12">1.36</text><line x1="62" y1="300.5" x2="732" y2="300.5" stroke="#e8edf2"/><text x="53" y="304.5" text-anchor="end" font-family="sans-serif" fill="#64748b" font-size="12">1.45</text><line x1="62" y1="236.0" x2="732" y2="236.0" stroke="#e8edf2"/><text x="53" y="240.0" text-anchor="end" font-family="sans-serif" fill="#64748b" font-size="12">1.53</text><line x1="62" y1="171.5" x2="732" y2="171.5" stroke="#e8edf2"/><text x="53" y="175.5" text-anchor="end" font-family="sans-serif" fill="#64748b" font-size="12">1.62</text><line x1="62" y1="107.0" x2="732" y2="107.0" stroke="#e8edf2"/><text x="53" y="111.0" text-anchor="end" font-family="sans-serif" fill="#64748b" font-size="12">1.70</text><text x="732" y="60" text-anchor="end" font-family="sans-serif" fill="#64748b" font-size="12">%</text><polyline points="62.0,259.7 97.3,274.9 132.5,221.5 167.8,241.6 203.1,255.8 238.3,255.6 273.6,282.6 308.8,220.1 344.1,259.7 379.4,282.6 414.6,259.7 449.9,290.2 485.2,297.8 520.4,313.1 555.7,320.7 590.9,320.7 626.2,297.8 661.5,297.8 696.7,282.6 732.0,282.6" fill="none" stroke="#245b85" stroke-width="2.4"/><circle cx="62.0" cy="259.7" r="2.8" fill="white" stroke="#245b85" stroke-width="1.5"/><circle cx="97.3" cy="274.9" r="2.8" fill="white" stroke="#245b85" stroke-width="1.5"/><circle cx="132.5" cy="221.5" r="2.8" fill="white" stroke="#245b85" stroke-width="1.5"/><circle cx="167.8" cy="241.6" r="2.8" fill="white" stroke="#245b85" stroke-width="1.5"/><circle cx="203.1" cy="255.8" r="2.8" fill="white" stroke="#245b85" stroke-width="1.5"/><circle cx="238.3" cy="255.6" r="2.8" fill="white" stroke="#245b85" stroke-width="1.5"/><circle cx="273.6" cy="282.6" r="2.8" fill="white" stroke="#245b85" stroke-width="1.5"/><circle cx="308.8" cy="220.1" r="2.8" fill="white" stroke="#245b85" stroke-width="1.5"/><circle cx="344.1" cy="259.7" r="2.8" fill="white" stroke="#245b85" stroke-width="1.5"/><circle cx="379.4" cy="282.6" r="2.8" fill="white" stroke="#245b85" stroke-width="1.5"/><circle cx="414.6" cy="259.7" r="2.8" fill="white" stroke="#245b85" stroke-width="1.5"/><circle cx="449.9" cy="290.2" r="2.8" fill="white" stroke="#245b85" stroke-width="1.5"/><circle cx="485.2" cy="297.8" r="2.8" fill="white" stroke="#245b85" stroke-width="1.5"/><circle cx="520.4" cy="313.1" r="2.8" fill="white" stroke="#245b85" stroke-width="1.5"/><circle cx="555.7" cy="320.7" r="2.8" fill="white" stroke="#245b85" stroke-width="1.5"/><circle cx="590.9" cy="320.7" r="2.8" fill="white" stroke="#245b85" stroke-width="1.5"/><circle cx="626.2" cy="297.8" r="2.8" fill="white" stroke="#245b85" stroke-width="1.5"/><circle cx="661.5" cy="297.8" r="2.8" fill="white" stroke="#245b85" stroke-width="1.5"/><circle cx="696.7" cy="282.6" r="2.8" fill="white" stroke="#245b85" stroke-width="1.5"/><circle cx="732.0" cy="282.6" r="2.8" fill="white" stroke="#245b85" stroke-width="1.5"/><text x="62" y="85" font-family="sans-serif" font-size="13" fill="#245b85">FDR007</text><polyline points="62.0,206.2 97.3,213.9 132.5,183.3 167.8,183.3 203.1,168.1 238.3,145.2 273.6,213.9 308.8,160.4 344.1,183.3 379.4,198.6 414.6,221.5 449.9,213.9 485.2,244.4 520.4,244.4 555.7,244.4 590.9,244.4 626.2,244.4 661.5,244.4 696.7,244.4 732.0,236.8" fill="none" stroke="#b58b3b" stroke-width="2.4" stroke-dasharray="7 4"/><circle cx="62.0" cy="206.2" r="2.8" fill="white" stroke="#b58b3b" stroke-width="1.5"/><circle cx="97.3" cy="213.9" r="2.8" fill="white" stroke="#b58b3b" stroke-width="1.5"/><circle cx="132.5" cy="183.3" r="2.8" fill="white" stroke="#b58b3b" stroke-width="1.5"/><circle cx="167.8" cy="183.3" r="2.8" fill="white" stroke="#b58b3b" stroke-width="1.5"/><circle cx="203.1" cy="168.1" r="2.8" fill="white" stroke="#b58b3b" stroke-width="1.5"/><circle cx="238.3" cy="145.2" r="2.8" fill="white" stroke="#b58b3b" stroke-width="1.5"/><circle cx="273.6" cy="213.9" r="2.8" fill="white" stroke="#b58b3b" stroke-width="1.5"/><circle cx="308.8" cy="160.4" r="2.8" fill="white" stroke="#b58b3b" stroke-width="1.5"/><circle cx="344.1" cy="183.3" r="2.8" fill="white" stroke="#b58b3b" stroke-width="1.5"/><circle cx="379.4" cy="198.6" r="2.8" fill="white" stroke="#b58b3b" stroke-width="1.5"/><circle cx="414.6" cy="221.5" r="2.8" fill="white" stroke="#b58b3b" stroke-width="1.5"/><circle cx="449.9" cy="213.9" r="2.8" fill="white" stroke="#b58b3b" stroke-width="1.5"/><circle cx="485.2" cy="244.4" r="2.8" fill="white" stroke="#b58b3b" stroke-width="1.5"/><circle cx="520.4" cy="244.4" r="2.8" fill="white" stroke="#b58b3b" stroke-width="1.5"/><circle cx="555.7" cy="244.4" r="2.8" fill="white" stroke="#b58b3b" stroke-width="1.5"/><circle cx="590.9" cy="244.4" r="2.8" fill="white" stroke="#b58b3b" stroke-width="1.5"/><circle cx="626.2" cy="244.4" r="2.8" fill="white" stroke="#b58b3b" stroke-width="1.5"/><circle cx="661.5" cy="244.4" r="2.8" fill="white" stroke="#b58b3b" stroke-width="1.5"/><circle cx="696.7" cy="244.4" r="2.8" fill="white" stroke="#b58b3b" stroke-width="1.5"/><circle cx="732.0" cy="236.8" r="2.8" fill="white" stroke="#b58b3b" stroke-width="1.5"/><text x="194" y="85" font-family="sans-serif" font-size="13" fill="#b58b3b">FR007</text><polyline points="62.0,287.1 97.3,309.3 132.5,255.8 167.8,236.0 203.1,242.1 238.3,245.9 273.6,313.1 308.8,219.2 344.1,262.0 379.4,292.5 414.6,279.5 449.9,285.6 485.2,299.4 520.4,324.5 555.7,326.8 590.9,326.8 626.2,318.4 661.5,311.6 696.7,290.2 732.0,286.4" fill="none" stroke="#75804b" stroke-width="2.4"/><circle cx="62.0" cy="287.1" r="2.8" fill="white" stroke="#75804b" stroke-width="1.5"/><circle cx="97.3" cy="309.3" r="2.8" fill="white" stroke="#75804b" stroke-width="1.5"/><circle cx="132.5" cy="255.8" r="2.8" fill="white" stroke="#75804b" stroke-width="1.5"/><circle cx="167.8" cy="236.0" r="2.8" fill="white" stroke="#75804b" stroke-width="1.5"/><circle cx="203.1" cy="242.1" r="2.8" fill="white" stroke="#75804b" stroke-width="1.5"/><circle cx="238.3" cy="245.9" r="2.8" fill="white" stroke="#75804b" stroke-width="1.5"/><circle cx="273.6" cy="313.1" r="2.8" fill="white" stroke="#75804b" stroke-width="1.5"/><circle cx="308.8" cy="219.2" r="2.8" fill="white" stroke="#75804b" stroke-width="1.5"/><circle cx="344.1" cy="262.0" r="2.8" fill="white" stroke="#75804b" stroke-width="1.5"/><circle cx="379.4" cy="292.5" r="2.8" fill="white" stroke="#75804b" stroke-width="1.5"/><circle cx="414.6" cy="279.5" r="2.8" fill="white" stroke="#75804b" stroke-width="1.5"/><circle cx="449.9" cy="285.6" r="2.8" fill="white" stroke="#75804b" stroke-width="1.5"/><circle cx="485.2" cy="299.4" r="2.8" fill="white" stroke="#75804b" stroke-width="1.5"/><circle cx="520.4" cy="324.5" r="2.8" fill="white" stroke="#75804b" stroke-width="1.5"/><circle cx="555.7" cy="326.8" r="2.8" fill="white" stroke="#75804b" stroke-width="1.5"/><circle cx="590.9" cy="326.8" r="2.8" fill="white" stroke="#75804b" stroke-width="1.5"/><circle cx="626.2" cy="318.4" r="2.8" fill="white" stroke="#75804b" stroke-width="1.5"/><circle cx="661.5" cy="311.6" r="2.8" fill="white" stroke="#75804b" stroke-width="1.5"/><circle cx="696.7" cy="290.2" r="2.8" fill="white" stroke="#75804b" stroke-width="1.5"/><circle cx="732.0" cy="286.4" r="2.8" fill="white" stroke="#75804b" stroke-width="1.5"/><text x="326" y="85" font-family="sans-serif" font-size="13" fill="#75804b">SHIBOR_7D</text><text x="62.0" y="388" text-anchor="middle" font-family="sans-serif" fill="#64748b" font-size="12">02-05</text><text x="203.1" y="388" text-anchor="middle" font-family="sans-serif" fill="#64748b" font-size="12">02-11</text><text x="344.1" y="388" text-anchor="middle" font-family="sans-serif" fill="#64748b" font-size="12">02-25</text><text x="485.2" y="388" text-anchor="middle" font-family="sans-serif" fill="#64748b" font-size="12">03-03</text><text x="626.2" y="388" text-anchor="middle" font-family="sans-serif" fill="#64748b" font-size="12">03-09</text><text x="732.0" y="388" text-anchor="middle" font-family="sans-serif" fill="#64748b" font-size="12">03-12</text></svg>