<svg xmlns="http://www.w3.org/2000/svg" width="760" height="410" viewBox="0 0 760 410"><rect width="100%" height="100%" fill="white"/><text x="62" y="60" font-family="sans-serif" fill="#1e293b" font-size="18" font-weight="600">近20日资金利率分层</text><line x1="62" y1="107" x2="62" y2="365" stroke="#94a3b8"/><line x1="62" y1="365" x2="732" y2="365" stroke="#94a3b8"/><line x1="62" y1="365.0" x2="732" y2="365.0" stroke="#e8edf2"/><text x="53" y="369.0" text-anchor="end" font-family="sans-serif" fill="#64748b" font-size="12">1.32</text><line x1="62" y1="300.5" x2="732" y2="300.5" stroke="#e8edf2"/><text x="53" y="304.5" text-anchor="end" font-family="sans-serif" fill="#64748b" font-size="12">1.44</text><line x1="62" y1="236.0" x2="732" y2="236.0" stroke="#e8edf2"/><text x="53" y="240.0" text-anchor="end" font-family="sans-serif" fill="#64748b" font-size="12">1.56</text><line x1="62" y1="171.5" x2="732" y2="171.5" stroke="#e8edf2"/><text x="53" y="175.5" text-anchor="end" font-family="sans-serif" fill="#64748b" font-size="12">1.68</text><line x1="62" y1="107.0" x2="732" y2="107.0" stroke="#e8edf2"/><text x="53" y="111.0" text-anchor="end" font-family="sans-serif" fill="#64748b" font-size="12">1.80</text><text x="732" y="60" text-anchor="end" font-family="sans-serif" fill="#64748b" font-size="12">%</text><polyline points="62.0,304.9 97.3,286.3 132.5,267.5 167.8,294.9 203.1,297.6 238.3,312.1 273.6,333.4 308.8,337.6 344.1,333.4 379.4,329.8 414.6,325.9 449.9,327.4 485.2,325.5 520.4,327.8 555.7,331.1 590.9,332.7 626.2,337.0 661.5,333.3 696.7,330.3 732.0,306.1" fill="none" stroke="#245b85" stroke-width="2.4"/><circle cx="62.0" cy="304.9" r="2.8" fill="white" stroke="#245b85" stroke-width="1.5"/><circle cx="97.3" cy="286.3" r="2.8" fill="white" stroke="#245b85" stroke-width="1.5"/><circle cx="132.5" cy="267.5" r="2.8" fill="white" stroke="#245b85" stroke-width="1.5"/><circle cx="167.8" cy="294.9" r="2.8" fill="white" stroke="#245b85" stroke-width="1.5"/><circle cx="203.1" cy="297.6" r="2.8" fill="white" stroke="#245b85" stroke-width="1.5"/><circle cx="238.3" cy="312.1" r="2.8" fill="white" stroke="#245b85" stroke-width="1.5"/><circle cx="273.6" cy="333.4" r="2.8" fill="white" stroke="#245b85" stroke-width="1.5"/><circle cx="308.8" cy="337.6" r="2.8" fill="white" stroke="#245b85" stroke-width="1.5"/><circle cx="344.1" cy="333.4" r="2.8" fill="white" stroke="#245b85" stroke-width="1.5"/><circle cx="379.4" cy="329.8" r="2.8" fill="white" stroke="#245b85" stroke-width="1.5"/><circle cx="414.6" cy="325.9" r="2.8" fill="white" stroke="#245b85" stroke-width="1.5"/><circle cx="449.9" cy="327.4" r="2.8" fill="white" stroke="#245b85" stroke-width="1.5"/><circle cx="485.2" cy="325.5" r="2.8" fill="white" stroke="#245b85" stroke-width="1.5"/><circle cx="520.4" cy="327.8" r="2.8" fill="white" stroke="#245b85" stroke-width="1.5"/><circle cx="555.7" cy="331.1" r="2.8" fill="white" stroke="#245b85" stroke-width="1.5"/><circle cx="590.9" cy="332.7" r="2.8" fill="white" stroke="#245b85" stroke-width="1.5"/><circle cx="626.2" cy="337.0" r="2.8" fill="white" stroke="#245b85" stroke-width="1.5"/><circle cx="661.5" cy="333.3" r="2.8" fill="white" stroke="#245b85" stroke-width="1.5"/><circle cx="696.7" cy="330.3" r="2.8" fill="white" stroke="#245b85" stroke-width="1.5"/><circle cx="732.0" cy="306.1" r="2.8" fill="white" stroke="#245b85" stroke-width="1.5"/><text x="62" y="85" font-family="sans-serif" font-size="13" fill="#245b85">DR007</text><polyline points="62.0,190.2 97.3,172.7 132.5,151.9 167.8,134.4 203.1,191.3 238.3,207.2 273.6,193.0 308.8,193.0 344.1,191.9 379.4,204.5 414.6,212.1 449.9,189.1 485.2,197.9 520.4,208.3 555.7,195.2 590.9,213.8 626.2,202.8 661.5,206.1 696.7,212.7 732.0,188.6" fill="none" stroke="#b58b3b" stroke-width="2.4" stroke-dasharray="7 4"/><circle cx="62.0" cy="190.2" r="2.8" fill="white" stroke="#b58b3b" stroke-width="1.5"/><circle cx="97.3" cy="172.7" r="2.8" fill="white" stroke="#b58b3b" stroke-width="1.5"/><circle cx="132.5" cy="151.9" r="2.8" fill="white" stroke="#b58b3b" stroke-width="1.5"/><circle cx="167.8" cy="134.4" r="2.8" fill="white" stroke="#b58b3b" stroke-width="1.5"/><circle cx="203.1" cy="191.3" r="2.8" fill="white" stroke="#b58b3b" stroke-width="1.5"/><circle cx="238.3" cy="207.2" r="2.8" fill="white" stroke="#b58b3b" stroke-width="1.5"/><circle cx="273.6" cy="193.0" r="2.8" fill="white" stroke="#b58b3b" stroke-width="1.5"/><circle cx="308.8" cy="193.0" r="2.8" fill="white" stroke="#b58b3b" stroke-width="1.5"/><circle cx="344.1" cy="191.9" r="2.8" fill="white" stroke="#b58b3b" stroke-width="1.5"/><circle cx="379.4" cy="204.5" r="2.8" fill="white" stroke="#b58b3b" stroke-width="1.5"/><circle cx="414.6" cy="212.1" r="2.8" fill="white" stroke="#b58b3b" stroke-width="1.5"/><circle cx="449.9" cy="189.1" r="2.8" fill="white" stroke="#b58b3b" stroke-width="1.5"/><circle cx="485.2" cy="197.9" r="2.8" fill="white" stroke="#b58b3b" stroke-width="1.5"/><circle cx="520.4" cy="208.3" r="2.8" fill="white" stroke="#b58b3b" stroke-width="1.5"/><circle cx="555.7" cy="195.2" r="2.8" fill="white" stroke="#b58b3b" stroke-width="1.5"/><circle cx="590.9" cy="213.8" r="2.8" fill="white" stroke="#b58b3b" stroke-width="1.5"/><circle cx="626.2" cy="202.8" r="2.8" fill="white" stroke="#b58b3b" stroke-width="1.5"/><circle cx="661.5" cy="206.1" r="2.8" fill="white" stroke="#b58b3b" stroke-width="1.5"/><circle cx="696.7" cy="212.7" r="2.8" fill="white" stroke="#b58b3b" stroke-width="1.5"/><circle cx="732.0" cy="188.6" r="2.8" fill="white" stroke="#b58b3b" stroke-width="1.5"/><text x="194" y="85" font-family="sans-serif" font-size="13" fill="#b58b3b">R007</text><polyline points="62.0,306.0 97.3,290.4 132.5,263.0 167.8,293.2 203.1,294.3 238.3,306.3 273.6,329.8 308.8,335.9 344.1,332.6 379.4,328.2 414.6,323.3 449.9,326.6 485.2,324.3 520.4,323.8 555.7,328.8 590.9,331.3 626.2,334.2 661.5,331.5 696.7,328.8 732.0,309.3" fill="none" stroke="#75804b" stroke-width="2.4"/><circle cx="62.0" cy="306.0" r="2.8" fill="white" stroke="#75804b" stroke-width="1.5"/><circle cx="97.3" cy="290.4" r="2.8" fill="white" stroke="#75804b" stroke-width="1.5"/><circle cx="132.5" cy="263.0" r="2.8" fill="white" stroke="#75804b" stroke-width="1.5"/><circle cx="167.8" cy="293.2" r="2.8" fill="white" stroke="#75804b" stroke-width="1.5"/><circle cx="203.1" cy="294.3" r="2.8" fill="white" stroke="#75804b" stroke-width="1.5"/><circle cx="238.3" cy="306.3" r="2.8" fill="white" stroke="#75804b" stroke-width="1.5"/><circle cx="273.6" cy="329.8" r="2.8" fill="white" stroke="#75804b" stroke-width="1.5"/><circle cx="308.8" cy="335.9" r="2.8" fill="white" stroke="#75804b" stroke-width="1.5"/><circle cx="344.1" cy="332.6" r="2.8" fill="white" stroke="#75804b" stroke-width="1.5"/><circle cx="379.4" cy="328.2" r="2.8" fill="white" stroke="#75804b" stroke-width="1.5"/><circle cx="414.6" cy="323.3" r="2.8" fill="white" stroke="#75804b" stroke-width="1.5"/><circle cx="449.9" cy="326.6" r="2.8" fill="white" stroke="#75804b" stroke-width="1.5"/><circle cx="485.2" cy="324.3" r="2.8" fill="white" stroke="#75804b" stroke-width="1.5"/><circle cx="520.4" cy="323.8" r="2.8" fill="white" stroke="#75804b" stroke-width="1.5"/><circle cx="555.7" cy="328.8" r="2.8" fill="white" stroke="#75804b" stroke-width="1.5"/><circle cx="590.9" cy="331.3" r="2.8" fill="white" stroke="#75804b" stroke-width="1.5"/><circle cx="626.2" cy="334.2" r="2.8" fill="white" stroke="#75804b" stroke-width="1.5"/><circle cx="661.5" cy="331.5" r="2.8" fill="white" stroke="#75804b" stroke-width="1.5"/><circle cx="696.7" cy="328.8" r="2.8" fill="white" stroke="#75804b" stroke-width="1.5"/><circle cx="732.0" cy="309.3" r="2.8" fill="white" stroke="#75804b" stroke-width="1.5"/><text x="326" y="85" font-family="sans-serif" font-size="13" fill="#75804b">SHIBOR_7D</text><text x="62.0" y="388" text-anchor="middle" font-family="sans-serif" fill="#64748b" font-size="12">07-27</text><text x="203.1" y="388" text-anchor="middle" font-family="sans-serif" fill="#64748b" font-size="12">07-31</text><text x="344.1" y="388" text-anchor="middle" font-family="sans-serif" fill="#64748b" font-size="12">08-06</text><text x="485.2" y="388" text-anchor="middle" font-family="sans-serif" fill="#64748b" font-size="12">08-12</text><text x="626.2" y="388" text-anchor="middle" font-family="sans-serif" fill="#64748b" font-size="12">08-18</text><text x="732.0" y="388" text-anchor="middle" font-family="sans-serif" fill="#64748b" font-size="12">08-21</text></svg>