<svg xmlns="http://www.w3.org/2000/svg" width="760" height="410" viewBox="0 0 760 410"><rect width="100%" height="100%" fill="white"/><text x="62" y="60" font-family="sans-serif" fill="#1e293b" font-size="18" font-weight="600">国债收益率曲线</text><line x1="62" y1="107" x2="62" y2="365" stroke="#94a3b8"/><line x1="62" y1="365" x2="732" y2="365" stroke="#94a3b8"/><line x1="62" y1="365.0" x2="732" y2="365.0" stroke="#e8edf2"/><text x="53" y="369.0" text-anchor="end" font-family="sans-serif" fill="#64748b" font-size="12">1.17</text><line x1="62" y1="300.5" x2="732" y2="300.5" stroke="#e8edf2"/><text x="53" y="304.5" text-anchor="end" font-family="sans-serif" fill="#64748b" font-size="12">1.48</text><line x1="62" y1="236.0" x2="732" y2="236.0" stroke="#e8edf2"/><text x="53" y="240.0" text-anchor="end" font-family="sans-serif" fill="#64748b" font-size="12">1.78</text><line x1="62" y1="171.5" x2="732" y2="171.5" stroke="#e8edf2"/><text x="53" y="175.5" text-anchor="end" font-family="sans-serif" fill="#64748b" font-size="12">2.09</text><line x1="62" y1="107.0" x2="732" y2="107.0" stroke="#e8edf2"/><text x="53" y="111.0" text-anchor="end" font-family="sans-serif" fill="#64748b" font-size="12">2.39</text><text x="732" y="60" text-anchor="end" font-family="sans-serif" fill="#64748b" font-size="12">%</text><polyline points="62.0,340.0 229.5,332.5 397.0,289.4 564.5,237.2 732.0,132.7" fill="none" stroke="#245b85" stroke-width="2.4"/><circle cx="62.0" cy="340.0" r="2.8" fill="white" stroke="#245b85" stroke-width="1.5"/><circle cx="229.5" cy="332.5" r="2.8" fill="white" stroke="#245b85" stroke-width="1.5"/><circle cx="397.0" cy="289.4" r="2.8" fill="white" stroke="#245b85" stroke-width="1.5"/><circle cx="564.5" cy="237.2" r="2.8" fill="white" stroke="#245b85" stroke-width="1.5"/><circle cx="732.0" cy="132.7" r="2.8" fill="white" stroke="#245b85" stroke-width="1.5"/><text x="62" y="85" font-family="sans-serif" font-size="13" fill="#245b85">2026-03-05</text><polyline points="62.0,340.0 229.5,333.0 397.0,289.9 564.5,237.4 732.0,132.0" fill="none" stroke="#b58b3b" stroke-width="2.4" stroke-dasharray="7 4"/><circle cx="62.0" cy="340.0" r="2.8" fill="white" stroke="#b58b3b" stroke-width="1.5"/><circle cx="229.5" cy="333.0" r="2.8" fill="white" stroke="#b58b3b" stroke-width="1.5"/><circle cx="397.0" cy="289.9" r="2.8" fill="white" stroke="#b58b3b" stroke-width="1.5"/><circle cx="564.5" cy="237.4" r="2.8" fill="white" stroke="#b58b3b" stroke-width="1.5"/><circle cx="732.0" cy="132.0" r="2.8" fill="white" stroke="#b58b3b" stroke-width="1.5"/><text x="194" y="85" font-family="sans-serif" font-size="13" fill="#b58b3b">2026-03-04</text><text x="62.0" y="388" text-anchor="middle" font-family="sans-serif" fill="#64748b" font-size="12">1Y</text><text x="229.5" y="388" text-anchor="middle" font-family="sans-serif" fill="#64748b" font-size="12">2Y</text><text x="397.0" y="388" text-anchor="middle" font-family="sans-serif" fill="#64748b" font-size="12">5Y</text><text x="564.5" y="388" text-anchor="middle" font-family="sans-serif" fill="#64748b" font-size="12">10Y</text><text x="732.0" y="388" text-anchor="middle" font-family="sans-serif" fill="#64748b" font-size="12">30Y</text></svg>