<svg xmlns="http://www.w3.org/2000/svg" width="760" height="410" viewBox="0 0 760 410"><rect width="100%" height="100%" fill="white"/><text x="62" y="60" font-family="sans-serif" fill="#1e293b" font-size="18" font-weight="600">国债期货累计表现</text><line x1="62" y1="107" x2="62" y2="365" stroke="#94a3b8"/><line x1="62" y1="365" x2="732" y2="365" stroke="#94a3b8"/><line x1="62" y1="365.0" x2="732" y2="365.0" stroke="#e8edf2"/><text x="53" y="369.0" text-anchor="end" font-family="sans-serif" fill="#64748b" font-size="12">99.25</text><line x1="62" y1="300.5" x2="732" y2="300.5" stroke="#e8edf2"/><text x="53" y="304.5" text-anchor="end" font-family="sans-serif" fill="#64748b" font-size="12">99.94</text><line x1="62" y1="236.0" x2="732" y2="236.0" stroke="#e8edf2"/><text x="53" y="240.0" text-anchor="end" font-family="sans-serif" fill="#64748b" font-size="12">100.63</text><line x1="62" y1="171.5" x2="732" y2="171.5" stroke="#e8edf2"/><text x="53" y="175.5" text-anchor="end" font-family="sans-serif" fill="#64748b" font-size="12">101.32</text><line x1="62" y1="107.0" x2="732" y2="107.0" stroke="#e8edf2"/><text x="53" y="111.0" text-anchor="end" font-family="sans-serif" fill="#64748b" font-size="12">102.01</text><text x="732" y="60" text-anchor="end" font-family="sans-serif" fill="#64748b" font-size="12">指数</text><polyline points="62.0,296.3 97.3,296.1 132.5,296.8 167.8,298.6 203.1,297.5 238.3,299.7 273.6,298.4 308.8,296.4 344.1,299.5 379.4,298.8 414.6,298.6 449.9,300.1 485.2,298.6 520.4,296.8 555.7,295.3 590.9,297.9 626.2,295.9 661.5,295.7 696.7,294.6 732.0,293.7" fill="none" stroke="#245b85" stroke-width="2.4"/><circle cx="62.0" cy="296.3" r="2.8" fill="white" stroke="#245b85" stroke-width="1.5"/><circle cx="97.3" cy="296.1" r="2.8" fill="white" stroke="#245b85" stroke-width="1.5"/><circle cx="132.5" cy="296.8" r="2.8" fill="white" stroke="#245b85" stroke-width="1.5"/><circle cx="167.8" cy="298.6" r="2.8" fill="white" stroke="#245b85" stroke-width="1.5"/><circle cx="203.1" cy="297.5" r="2.8" fill="white" stroke="#245b85" stroke-width="1.5"/><circle cx="238.3" cy="299.7" r="2.8" fill="white" stroke="#245b85" stroke-width="1.5"/><circle cx="273.6" cy="298.4" r="2.8" fill="white" stroke="#245b85" stroke-width="1.5"/><circle cx="308.8" cy="296.4" r="2.8" fill="white" stroke="#245b85" stroke-width="1.5"/><circle cx="344.1" cy="299.5" r="2.8" fill="white" stroke="#245b85" stroke-width="1.5"/><circle cx="379.4" cy="298.8" r="2.8" fill="white" stroke="#245b85" stroke-width="1.5"/><circle cx="414.6" cy="298.6" r="2.8" fill="white" stroke="#245b85" stroke-width="1.5"/><circle cx="449.9" cy="300.1" r="2.8" fill="white" stroke="#245b85" stroke-width="1.5"/><circle cx="485.2" cy="298.6" r="2.8" fill="white" stroke="#245b85" stroke-width="1.5"/><circle cx="520.4" cy="296.8" r="2.8" fill="white" stroke="#245b85" stroke-width="1.5"/><circle cx="555.7" cy="295.3" r="2.8" fill="white" stroke="#245b85" stroke-width="1.5"/><circle cx="590.9" cy="297.9" r="2.8" fill="white" stroke="#245b85" stroke-width="1.5"/><circle cx="626.2" cy="295.9" r="2.8" fill="white" stroke="#245b85" stroke-width="1.5"/><circle cx="661.5" cy="295.7" r="2.8" fill="white" stroke="#245b85" stroke-width="1.5"/><circle cx="696.7" cy="294.6" r="2.8" fill="white" stroke="#245b85" stroke-width="1.5"/><circle cx="732.0" cy="293.7" r="2.8" fill="white" stroke="#245b85" stroke-width="1.5"/><text x="62" y="85" font-family="sans-serif" font-size="13" fill="#245b85">TS</text><polyline points="62.0,322.8 97.3,319.6 132.5,317.9 167.8,340.0 203.1,317.9 238.3,332.7 273.6,322.0 308.8,264.0 344.1,245.1 379.4,232.8 414.6,223.0 449.9,227.9 485.2,249.2 520.4,193.5 555.7,166.5 590.9,161.5 626.2,144.3 661.5,155.0 696.7,159.1 732.0,132.0" fill="none" stroke="#b58b3b" stroke-width="2.4" stroke-dasharray="7 4"/><circle cx="62.0" cy="322.8" r="2.8" fill="white" stroke="#b58b3b" stroke-width="1.5"/><circle cx="97.3" cy="319.6" r="2.8" fill="white" stroke="#b58b3b" stroke-width="1.5"/><circle cx="132.5" cy="317.9" r="2.8" fill="white" stroke="#b58b3b" stroke-width="1.5"/><circle cx="167.8" cy="340.0" r="2.8" fill="white" stroke="#b58b3b" stroke-width="1.5"/><circle cx="203.1" cy="317.9" r="2.8" fill="white" stroke="#b58b3b" stroke-width="1.5"/><circle cx="238.3" cy="332.7" r="2.8" fill="white" stroke="#b58b3b" stroke-width="1.5"/><circle cx="273.6" cy="322.0" r="2.8" fill="white" stroke="#b58b3b" stroke-width="1.5"/><circle cx="308.8" cy="264.0" r="2.8" fill="white" stroke="#b58b3b" stroke-width="1.5"/><circle cx="344.1" cy="245.1" r="2.8" fill="white" stroke="#b58b3b" stroke-width="1.5"/><circle cx="379.4" cy="232.8" r="2.8" fill="white" stroke="#b58b3b" stroke-width="1.5"/><circle cx="414.6" cy="223.0" r="2.8" fill="white" stroke="#b58b3b" stroke-width="1.5"/><circle cx="449.9" cy="227.9" r="2.8" fill="white" stroke="#b58b3b" stroke-width="1.5"/><circle cx="485.2" cy="249.2" r="2.8" fill="white" stroke="#b58b3b" stroke-width="1.5"/><circle cx="520.4" cy="193.5" r="2.8" fill="white" stroke="#b58b3b" stroke-width="1.5"/><circle cx="555.7" cy="166.5" r="2.8" fill="white" stroke="#b58b3b" stroke-width="1.5"/><circle cx="590.9" cy="161.5" r="2.8" fill="white" stroke="#b58b3b" stroke-width="1.5"/><circle cx="626.2" cy="144.3" r="2.8" fill="white" stroke="#b58b3b" stroke-width="1.5"/><circle cx="661.5" cy="155.0" r="2.8" fill="white" stroke="#b58b3b" stroke-width="1.5"/><circle cx="696.7" cy="159.1" r="2.8" fill="white" stroke="#b58b3b" stroke-width="1.5"/><circle cx="732.0" cy="132.0" r="2.8" fill="white" stroke="#b58b3b" stroke-width="1.5"/><text x="194" y="85" font-family="sans-serif" font-size="13" fill="#b58b3b">TL</text><polyline points="62.0,297.2 97.3,295.9 132.5,296.3 167.8,300.7 203.1,298.5 238.3,303.3 273.6,298.9 308.8,289.7 344.1,296.7 379.4,295.0 414.6,297.2 449.9,300.7 485.2,298.5 520.4,289.3 555.7,281.8 590.9,286.6 626.2,280.1 661.5,280.5 696.7,280.5 732.0,277.4" fill="none" stroke="#75804b" stroke-width="2.4"/><circle cx="62.0" cy="297.2" r="2.8" fill="white" stroke="#75804b" stroke-width="1.5"/><circle cx="97.3" cy="295.9" r="2.8" fill="white" stroke="#75804b" stroke-width="1.5"/><circle cx="132.5" cy="296.3" r="2.8" fill="white" stroke="#75804b" stroke-width="1.5"/><circle cx="167.8" cy="300.7" r="2.8" fill="white" stroke="#75804b" stroke-width="1.5"/><circle cx="203.1" cy="298.5" r="2.8" fill="white" stroke="#75804b" stroke-width="1.5"/><circle cx="238.3" cy="303.3" r="2.8" fill="white" stroke="#75804b" stroke-width="1.5"/><circle cx="273.6" cy="298.9" r="2.8" fill="white" stroke="#75804b" stroke-width="1.5"/><circle cx="308.8" cy="289.7" r="2.8" fill="white" stroke="#75804b" stroke-width="1.5"/><circle cx="344.1" cy="296.7" r="2.8" fill="white" stroke="#75804b" stroke-width="1.5"/><circle cx="379.4" cy="295.0" r="2.8" fill="white" stroke="#75804b" stroke-width="1.5"/><circle cx="414.6" cy="297.2" r="2.8" fill="white" stroke="#75804b" stroke-width="1.5"/><circle cx="449.9" cy="300.7" r="2.8" fill="white" stroke="#75804b" stroke-width="1.5"/><circle cx="485.2" cy="298.5" r="2.8" fill="white" stroke="#75804b" stroke-width="1.5"/><circle cx="520.4" cy="289.3" r="2.8" fill="white" stroke="#75804b" stroke-width="1.5"/><circle cx="555.7" cy="281.8" r="2.8" fill="white" stroke="#75804b" stroke-width="1.5"/><circle cx="590.9" cy="286.6" r="2.8" fill="white" stroke="#75804b" stroke-width="1.5"/><circle cx="626.2" cy="280.1" r="2.8" fill="white" stroke="#75804b" stroke-width="1.5"/><circle cx="661.5" cy="280.5" r="2.8" fill="white" stroke="#75804b" stroke-width="1.5"/><circle cx="696.7" cy="280.5" r="2.8" fill="white" stroke="#75804b" stroke-width="1.5"/><circle cx="732.0" cy="277.4" r="2.8" fill="white" stroke="#75804b" stroke-width="1.5"/><text x="326" y="85" font-family="sans-serif" font-size="13" fill="#75804b">TF</text><polyline points="62.0,300.1 97.3,299.7 132.5,300.5 167.8,304.8 203.1,301.0 238.3,307.4 273.6,303.1 308.8,290.3 344.1,297.5 379.4,291.1 414.6,294.6 449.9,298.8 485.2,296.7 520.4,283.4 555.7,273.2 590.9,276.6 626.2,268.0 661.5,268.5 696.7,268.9 732.0,265.0" fill="none" stroke="#a7657b" stroke-width="2.4" stroke-dasharray="7 4"/><circle cx="62.0" cy="300.1" r="2.8" fill="white" stroke="#a7657b" stroke-width="1.5"/><circle cx="97.3" cy="299.7" r="2.8" fill="white" stroke="#a7657b" stroke-width="1.5"/><circle cx="132.5" cy="300.5" r="2.8" fill="white" stroke="#a7657b" stroke-width="1.5"/><circle cx="167.8" cy="304.8" r="2.8" fill="white" stroke="#a7657b" stroke-width="1.5"/><circle cx="203.1" cy="301.0" r="2.8" fill="white" stroke="#a7657b" stroke-width="1.5"/><circle cx="238.3" cy="307.4" r="2.8" fill="white" stroke="#a7657b" stroke-width="1.5"/><circle cx="273.6" cy="303.1" r="2.8" fill="white" stroke="#a7657b" stroke-width="1.5"/><circle cx="308.8" cy="290.3" r="2.8" fill="white" stroke="#a7657b" stroke-width="1.5"/><circle cx="344.1" cy="297.5" r="2.8" fill="white" stroke="#a7657b" stroke-width="1.5"/><circle cx="379.4" cy="291.1" r="2.8" fill="white" stroke="#a7657b" stroke-width="1.5"/><circle cx="414.6" cy="294.6" r="2.8" fill="white" stroke="#a7657b" stroke-width="1.5"/><circle cx="449.9" cy="298.8" r="2.8" fill="white" stroke="#a7657b" stroke-width="1.5"/><circle cx="485.2" cy="296.7" r="2.8" fill="white" stroke="#a7657b" stroke-width="1.5"/><circle cx="520.4" cy="283.4" r="2.8" fill="white" stroke="#a7657b" stroke-width="1.5"/><circle cx="555.7" cy="273.2" r="2.8" fill="white" stroke="#a7657b" stroke-width="1.5"/><circle cx="590.9" cy="276.6" r="2.8" fill="white" stroke="#a7657b" stroke-width="1.5"/><circle cx="626.2" cy="268.0" r="2.8" fill="white" stroke="#a7657b" stroke-width="1.5"/><circle cx="661.5" cy="268.5" r="2.8" fill="white" stroke="#a7657b" stroke-width="1.5"/><circle cx="696.7" cy="268.9" r="2.8" fill="white" stroke="#a7657b" stroke-width="1.5"/><circle cx="732.0" cy="265.0" r="2.8" fill="white" stroke="#a7657b" stroke-width="1.5"/><text x="458" y="85" font-family="sans-serif" font-size="13" fill="#a7657b">T</text><text x="62.0" y="388" text-anchor="middle" font-family="sans-serif" fill="#64748b" font-size="12">2026-07-13</text><text x="203.1" y="388" text-anchor="middle" font-family="sans-serif" fill="#64748b" font-size="12">2026-07-17</text><text x="344.1" y="388" text-anchor="middle" font-family="sans-serif" fill="#64748b" font-size="12">2026-07-23</text><text x="485.2" y="388" text-anchor="middle" font-family="sans-serif" fill="#64748b" font-size="12">2026-07-29</text><text x="626.2" y="388" text-anchor="middle" font-family="sans-serif" fill="#64748b" font-size="12">2026-08-04</text><text x="732.0" y="388" text-anchor="middle" font-family="sans-serif" fill="#64748b" font-size="12">2026-08-07</text></svg>