<svg xmlns="http://www.w3.org/2000/svg" width="760" height="410" viewBox="0 0 760 410"><rect width="100%" height="100%" fill="white"/><text x="62" y="60" font-family="sans-serif" fill="#1e293b" font-size="18" font-weight="600">近20日资金利率分层</text><line x1="62" y1="107" x2="62" y2="365" stroke="#94a3b8"/><line x1="62" y1="365" x2="732" y2="365" stroke="#94a3b8"/><line x1="62" y1="365.0" x2="732" y2="365.0" stroke="#e8edf2"/><text x="53" y="369.0" text-anchor="end" font-family="sans-serif" fill="#64748b" font-size="12">1.32</text><line x1="62" y1="300.5" x2="732" y2="300.5" stroke="#e8edf2"/><text x="53" y="304.5" text-anchor="end" font-family="sans-serif" fill="#64748b" font-size="12">1.42</text><line x1="62" y1="236.0" x2="732" y2="236.0" stroke="#e8edf2"/><text x="53" y="240.0" text-anchor="end" font-family="sans-serif" fill="#64748b" font-size="12">1.52</text><line x1="62" y1="171.5" x2="732" y2="171.5" stroke="#e8edf2"/><text x="53" y="175.5" text-anchor="end" font-family="sans-serif" fill="#64748b" font-size="12">1.61</text><line x1="62" y1="107.0" x2="732" y2="107.0" stroke="#e8edf2"/><text x="53" y="111.0" text-anchor="end" font-family="sans-serif" fill="#64748b" font-size="12">1.71</text><text x="732" y="60" text-anchor="end" font-family="sans-serif" fill="#64748b" font-size="12">%</text><polyline points="62.0,291.5 97.3,277.4 132.5,296.7 167.8,316.4 203.1,321.0 238.3,303.3 273.6,318.4 308.8,327.6 344.1,329.5 379.4,328.2 414.6,325.6 449.9,325.6 485.2,317.7 520.4,305.9 555.7,299.4 590.9,300.7 626.2,298.7 661.5,291.5 696.7,279.7 732.0,271.8" fill="none" stroke="#245b85" stroke-width="2.4"/><circle cx="62.0" cy="291.5" r="2.8" fill="white" stroke="#245b85" stroke-width="1.5"/><circle cx="97.3" cy="277.4" r="2.8" fill="white" stroke="#245b85" stroke-width="1.5"/><circle cx="132.5" cy="296.7" r="2.8" fill="white" stroke="#245b85" stroke-width="1.5"/><circle cx="167.8" cy="316.4" r="2.8" fill="white" stroke="#245b85" stroke-width="1.5"/><circle cx="203.1" cy="321.0" r="2.8" fill="white" stroke="#245b85" stroke-width="1.5"/><circle cx="238.3" cy="303.3" r="2.8" fill="white" stroke="#245b85" stroke-width="1.5"/><circle cx="273.6" cy="318.4" r="2.8" fill="white" stroke="#245b85" stroke-width="1.5"/><circle cx="308.8" cy="327.6" r="2.8" fill="white" stroke="#245b85" stroke-width="1.5"/><circle cx="344.1" cy="329.5" r="2.8" fill="white" stroke="#245b85" stroke-width="1.5"/><circle cx="379.4" cy="328.2" r="2.8" fill="white" stroke="#245b85" stroke-width="1.5"/><circle cx="414.6" cy="325.6" r="2.8" fill="white" stroke="#245b85" stroke-width="1.5"/><circle cx="449.9" cy="325.6" r="2.8" fill="white" stroke="#245b85" stroke-width="1.5"/><circle cx="485.2" cy="317.7" r="2.8" fill="white" stroke="#245b85" stroke-width="1.5"/><circle cx="520.4" cy="305.9" r="2.8" fill="white" stroke="#245b85" stroke-width="1.5"/><circle cx="555.7" cy="299.4" r="2.8" fill="white" stroke="#245b85" stroke-width="1.5"/><circle cx="590.9" cy="300.7" r="2.8" fill="white" stroke="#245b85" stroke-width="1.5"/><circle cx="626.2" cy="298.7" r="2.8" fill="white" stroke="#245b85" stroke-width="1.5"/><circle cx="661.5" cy="291.5" r="2.8" fill="white" stroke="#245b85" stroke-width="1.5"/><circle cx="696.7" cy="279.7" r="2.8" fill="white" stroke="#245b85" stroke-width="1.5"/><circle cx="732.0" cy="271.8" r="2.8" fill="white" stroke="#245b85" stroke-width="1.5"/><text x="62" y="85" font-family="sans-serif" font-size="13" fill="#245b85">SHIBOR_7D</text><polyline points="62.0,154.9 97.3,139.8 132.5,149.0 167.8,296.9 203.1,307.4" fill="none" stroke="#b58b3b" stroke-width="2.4" stroke-dasharray="7 4"/><circle cx="62.0" cy="154.9" r="2.8" fill="white" stroke="#b58b3b" stroke-width="1.5"/><circle cx="97.3" cy="139.8" r="2.8" fill="white" stroke="#b58b3b" stroke-width="1.5"/><circle cx="132.5" cy="149.0" r="2.8" fill="white" stroke="#b58b3b" stroke-width="1.5"/><circle cx="167.8" cy="296.9" r="2.8" fill="white" stroke="#b58b3b" stroke-width="1.5"/><circle cx="203.1" cy="307.4" r="2.8" fill="white" stroke="#b58b3b" stroke-width="1.5"/><text x="194" y="85" font-family="sans-serif" font-size="13" fill="#b58b3b">R007</text><polyline points="62.0,286.2 97.3,273.1 132.5,286.2 167.8,292.8 203.1,305.9 238.3,296.1 273.6,299.4 308.8,302.6 344.1,302.6 379.4,305.9 414.6,305.9 449.9,305.9 485.2,302.6 520.4,292.8 555.7,299.4 590.9,299.4 626.2,292.8 661.5,286.2 696.7,273.1 732.0,260.0" fill="none" stroke="#75804b" stroke-width="2.4"/><circle cx="62.0" cy="286.2" r="2.8" fill="white" stroke="#75804b" stroke-width="1.5"/><circle cx="97.3" cy="273.1" r="2.8" fill="white" stroke="#75804b" stroke-width="1.5"/><circle cx="132.5" cy="286.2" r="2.8" fill="white" stroke="#75804b" stroke-width="1.5"/><circle cx="167.8" cy="292.8" r="2.8" fill="white" stroke="#75804b" stroke-width="1.5"/><circle cx="203.1" cy="305.9" r="2.8" fill="white" stroke="#75804b" stroke-width="1.5"/><circle cx="238.3" cy="296.1" r="2.8" fill="white" stroke="#75804b" stroke-width="1.5"/><circle cx="273.6" cy="299.4" r="2.8" fill="white" stroke="#75804b" stroke-width="1.5"/><circle cx="308.8" cy="302.6" r="2.8" fill="white" stroke="#75804b" stroke-width="1.5"/><circle cx="344.1" cy="302.6" r="2.8" fill="white" stroke="#75804b" stroke-width="1.5"/><circle cx="379.4" cy="305.9" r="2.8" fill="white" stroke="#75804b" stroke-width="1.5"/><circle cx="414.6" cy="305.9" r="2.8" fill="white" stroke="#75804b" stroke-width="1.5"/><circle cx="449.9" cy="305.9" r="2.8" fill="white" stroke="#75804b" stroke-width="1.5"/><circle cx="485.2" cy="302.6" r="2.8" fill="white" stroke="#75804b" stroke-width="1.5"/><circle cx="520.4" cy="292.8" r="2.8" fill="white" stroke="#75804b" stroke-width="1.5"/><circle cx="555.7" cy="299.4" r="2.8" fill="white" stroke="#75804b" stroke-width="1.5"/><circle cx="590.9" cy="299.4" r="2.8" fill="white" stroke="#75804b" stroke-width="1.5"/><circle cx="626.2" cy="292.8" r="2.8" fill="white" stroke="#75804b" stroke-width="1.5"/><circle cx="661.5" cy="286.2" r="2.8" fill="white" stroke="#75804b" stroke-width="1.5"/><circle cx="696.7" cy="273.1" r="2.8" fill="white" stroke="#75804b" stroke-width="1.5"/><circle cx="732.0" cy="260.0" r="2.8" fill="white" stroke="#75804b" stroke-width="1.5"/><text x="326" y="85" font-family="sans-serif" font-size="13" fill="#75804b">FR007</text><polyline points="62.0,292.8 97.3,279.7 132.5,299.4 167.8,319.0 203.1,325.6 238.3,305.9 273.6,319.0 308.8,325.6 344.1,332.2 379.4,332.2 414.6,325.6 449.9,325.6 485.2,319.0 520.4,305.9 555.7,299.4 590.9,305.9 626.2,299.4 661.5,292.8 696.7,279.7 732.0,279.7" fill="none" stroke="#a7657b" stroke-width="2.4" stroke-dasharray="7 4"/><circle cx="62.0" cy="292.8" r="2.8" fill="white" stroke="#a7657b" stroke-width="1.5"/><circle cx="97.3" cy="279.7" r="2.8" fill="white" stroke="#a7657b" stroke-width="1.5"/><circle cx="132.5" cy="299.4" r="2.8" fill="white" stroke="#a7657b" stroke-width="1.5"/><circle cx="167.8" cy="319.0" r="2.8" fill="white" stroke="#a7657b" stroke-width="1.5"/><circle cx="203.1" cy="325.6" r="2.8" fill="white" stroke="#a7657b" stroke-width="1.5"/><circle cx="238.3" cy="305.9" r="2.8" fill="white" stroke="#a7657b" stroke-width="1.5"/><circle cx="273.6" cy="319.0" r="2.8" fill="white" stroke="#a7657b" stroke-width="1.5"/><circle cx="308.8" cy="325.6" r="2.8" fill="white" stroke="#a7657b" stroke-width="1.5"/><circle cx="344.1" cy="332.2" r="2.8" fill="white" stroke="#a7657b" stroke-width="1.5"/><circle cx="379.4" cy="332.2" r="2.8" fill="white" stroke="#a7657b" stroke-width="1.5"/><circle cx="414.6" cy="325.6" r="2.8" fill="white" stroke="#a7657b" stroke-width="1.5"/><circle cx="449.9" cy="325.6" r="2.8" fill="white" stroke="#a7657b" stroke-width="1.5"/><circle cx="485.2" cy="319.0" r="2.8" fill="white" stroke="#a7657b" stroke-width="1.5"/><circle cx="520.4" cy="305.9" r="2.8" fill="white" stroke="#a7657b" stroke-width="1.5"/><circle cx="555.7" cy="299.4" r="2.8" fill="white" stroke="#a7657b" stroke-width="1.5"/><circle cx="590.9" cy="305.9" r="2.8" fill="white" stroke="#a7657b" stroke-width="1.5"/><circle cx="626.2" cy="299.4" r="2.8" fill="white" stroke="#a7657b" stroke-width="1.5"/><circle cx="661.5" cy="292.8" r="2.8" fill="white" stroke="#a7657b" stroke-width="1.5"/><circle cx="696.7" cy="279.7" r="2.8" fill="white" stroke="#a7657b" stroke-width="1.5"/><circle cx="732.0" cy="279.7" r="2.8" fill="white" stroke="#a7657b" stroke-width="1.5"/><text x="458" y="85" font-family="sans-serif" font-size="13" fill="#a7657b">FDR007</text><polyline points="62.0,290.2 97.3,277.6 132.5,294.0 167.8,315.8 203.1,321.7" fill="none" stroke="#64748b" stroke-width="2.4"/><circle cx="62.0" cy="290.2" r="2.8" fill="white" stroke="#64748b" stroke-width="1.5"/><circle cx="97.3" cy="277.6" r="2.8" fill="white" stroke="#64748b" stroke-width="1.5"/><circle cx="132.5" cy="294.0" r="2.8" fill="white" stroke="#64748b" stroke-width="1.5"/><circle cx="167.8" cy="315.8" r="2.8" fill="white" stroke="#64748b" stroke-width="1.5"/><circle cx="203.1" cy="321.7" r="2.8" fill="white" stroke="#64748b" stroke-width="1.5"/><text x="590" y="85" font-family="sans-serif" font-size="13" fill="#64748b">DR007</text><text x="62.0" y="388" text-anchor="middle" font-family="sans-serif" fill="#64748b" font-size="12">2026-08-24</text><text x="203.1" y="388" text-anchor="middle" font-family="sans-serif" fill="#64748b" font-size="12">2026-08-28</text><text x="344.1" y="388" text-anchor="middle" font-family="sans-serif" fill="#64748b" font-size="12">2026-09-03</text><text x="485.2" y="388" text-anchor="middle" font-family="sans-serif" fill="#64748b" font-size="12">2026-09-09</text><text x="626.2" y="388" text-anchor="middle" font-family="sans-serif" fill="#64748b" font-size="12">2026-09-15</text><text x="732.0" y="388" text-anchor="middle" font-family="sans-serif" fill="#64748b" font-size="12">2026-09-18</text></svg>