<svg xmlns="http://www.w3.org/2000/svg" width="760" height="410" viewBox="0 0 760 410"><rect width="100%" height="100%" fill="white"/><text x="62" y="60" font-family="sans-serif" fill="#1e293b" font-size="18" font-weight="600">国债期货累计表现</text><line x1="62" y1="107" x2="62" y2="365" stroke="#94a3b8"/><line x1="62" y1="365" x2="732" y2="365" stroke="#94a3b8"/><line x1="62" y1="365.0" x2="732" y2="365.0" stroke="#e8edf2"/><text x="53" y="369.0" text-anchor="end" font-family="sans-serif" fill="#64748b" font-size="12">99.63</text><line x1="62" y1="300.5" x2="732" y2="300.5" stroke="#e8edf2"/><text x="53" y="304.5" text-anchor="end" font-family="sans-serif" fill="#64748b" font-size="12">100.29</text><line x1="62" y1="236.0" x2="732" y2="236.0" stroke="#e8edf2"/><text x="53" y="240.0" text-anchor="end" font-family="sans-serif" fill="#64748b" font-size="12">100.95</text><line x1="62" y1="171.5" x2="732" y2="171.5" stroke="#e8edf2"/><text x="53" y="175.5" text-anchor="end" font-family="sans-serif" fill="#64748b" font-size="12">101.61</text><line x1="62" y1="107.0" x2="732" y2="107.0" stroke="#e8edf2"/><text x="53" y="111.0" text-anchor="end" font-family="sans-serif" fill="#64748b" font-size="12">102.28</text><text x="732" y="60" text-anchor="end" font-family="sans-serif" fill="#64748b" font-size="12">指数</text><polyline points="62.0,331.8 97.3,331.1 132.5,330.9 167.8,332.4 203.1,330.9 238.3,329.0 273.6,327.5 308.8,330.1 344.1,328.0 379.4,327.9 414.6,326.7 449.9,325.8 485.2,326.3 520.4,328.4 555.7,327.9 590.9,326.9 626.2,325.6 661.5,326.3 696.7,323.7 732.0,323.5" fill="none" stroke="#245b85" stroke-width="2.4"/><circle cx="62.0" cy="331.8" r="2.8" fill="white" stroke="#245b85" stroke-width="1.5"/><circle cx="97.3" cy="331.1" r="2.8" fill="white" stroke="#245b85" stroke-width="1.5"/><circle cx="132.5" cy="330.9" r="2.8" fill="white" stroke="#245b85" stroke-width="1.5"/><circle cx="167.8" cy="332.4" r="2.8" fill="white" stroke="#245b85" stroke-width="1.5"/><circle cx="203.1" cy="330.9" r="2.8" fill="white" stroke="#245b85" stroke-width="1.5"/><circle cx="238.3" cy="329.0" r="2.8" fill="white" stroke="#245b85" stroke-width="1.5"/><circle cx="273.6" cy="327.5" r="2.8" fill="white" stroke="#245b85" stroke-width="1.5"/><circle cx="308.8" cy="330.1" r="2.8" fill="white" stroke="#245b85" stroke-width="1.5"/><circle cx="344.1" cy="328.0" r="2.8" fill="white" stroke="#245b85" stroke-width="1.5"/><circle cx="379.4" cy="327.9" r="2.8" fill="white" stroke="#245b85" stroke-width="1.5"/><circle cx="414.6" cy="326.7" r="2.8" fill="white" stroke="#245b85" stroke-width="1.5"/><circle cx="449.9" cy="325.8" r="2.8" fill="white" stroke="#245b85" stroke-width="1.5"/><circle cx="485.2" cy="326.3" r="2.8" fill="white" stroke="#245b85" stroke-width="1.5"/><circle cx="520.4" cy="328.4" r="2.8" fill="white" stroke="#245b85" stroke-width="1.5"/><circle cx="555.7" cy="327.9" r="2.8" fill="white" stroke="#245b85" stroke-width="1.5"/><circle cx="590.9" cy="326.9" r="2.8" fill="white" stroke="#245b85" stroke-width="1.5"/><circle cx="626.2" cy="325.6" r="2.8" fill="white" stroke="#245b85" stroke-width="1.5"/><circle cx="661.5" cy="326.3" r="2.8" fill="white" stroke="#245b85" stroke-width="1.5"/><circle cx="696.7" cy="323.7" r="2.8" fill="white" stroke="#245b85" stroke-width="1.5"/><circle cx="732.0" cy="323.5" r="2.8" fill="white" stroke="#245b85" stroke-width="1.5"/><text x="62" y="85" font-family="sans-serif" font-size="13" fill="#245b85">TS</text><polyline points="62.0,309.1 97.3,296.3 132.5,286.1 167.8,291.2 203.1,313.3 238.3,255.5 273.6,227.4 308.8,222.3 344.1,204.4 379.4,215.5 414.6,219.8 449.9,191.6 485.2,160.1 520.4,178.8 555.7,185.6 590.9,156.7 626.2,147.3 661.5,158.4 696.7,132.0 732.0,159.2" fill="none" stroke="#b58b3b" stroke-width="2.4" stroke-dasharray="7 4"/><circle cx="62.0" cy="309.1" r="2.8" fill="white" stroke="#b58b3b" stroke-width="1.5"/><circle cx="97.3" cy="296.3" r="2.8" fill="white" stroke="#b58b3b" stroke-width="1.5"/><circle cx="132.5" cy="286.1" r="2.8" fill="white" stroke="#b58b3b" stroke-width="1.5"/><circle cx="167.8" cy="291.2" r="2.8" fill="white" stroke="#b58b3b" stroke-width="1.5"/><circle cx="203.1" cy="313.3" r="2.8" fill="white" stroke="#b58b3b" stroke-width="1.5"/><circle cx="238.3" cy="255.5" r="2.8" fill="white" stroke="#b58b3b" stroke-width="1.5"/><circle cx="273.6" cy="227.4" r="2.8" fill="white" stroke="#b58b3b" stroke-width="1.5"/><circle cx="308.8" cy="222.3" r="2.8" fill="white" stroke="#b58b3b" stroke-width="1.5"/><circle cx="344.1" cy="204.4" r="2.8" fill="white" stroke="#b58b3b" stroke-width="1.5"/><circle cx="379.4" cy="215.5" r="2.8" fill="white" stroke="#b58b3b" stroke-width="1.5"/><circle cx="414.6" cy="219.8" r="2.8" fill="white" stroke="#b58b3b" stroke-width="1.5"/><circle cx="449.9" cy="191.6" r="2.8" fill="white" stroke="#b58b3b" stroke-width="1.5"/><circle cx="485.2" cy="160.1" r="2.8" fill="white" stroke="#b58b3b" stroke-width="1.5"/><circle cx="520.4" cy="178.8" r="2.8" fill="white" stroke="#b58b3b" stroke-width="1.5"/><circle cx="555.7" cy="185.6" r="2.8" fill="white" stroke="#b58b3b" stroke-width="1.5"/><circle cx="590.9" cy="156.7" r="2.8" fill="white" stroke="#b58b3b" stroke-width="1.5"/><circle cx="626.2" cy="147.3" r="2.8" fill="white" stroke="#b58b3b" stroke-width="1.5"/><circle cx="661.5" cy="158.4" r="2.8" fill="white" stroke="#b58b3b" stroke-width="1.5"/><circle cx="696.7" cy="132.0" r="2.8" fill="white" stroke="#b58b3b" stroke-width="1.5"/><circle cx="732.0" cy="159.2" r="2.8" fill="white" stroke="#b58b3b" stroke-width="1.5"/><text x="194" y="85" font-family="sans-serif" font-size="13" fill="#b58b3b">TL</text><polyline points="62.0,335.9 97.3,334.1 132.5,336.4 167.8,340.0 203.1,337.7 238.3,328.2 273.6,320.4 308.8,325.4 344.1,318.6 379.4,319.0 414.6,319.0 449.9,315.8 485.2,314.0 520.4,319.9 555.7,320.4 590.9,316.7 626.2,311.7 661.5,310.8 696.7,306.7 732.0,309.4" fill="none" stroke="#75804b" stroke-width="2.4"/><circle cx="62.0" cy="335.9" r="2.8" fill="white" stroke="#75804b" stroke-width="1.5"/><circle cx="97.3" cy="334.1" r="2.8" fill="white" stroke="#75804b" stroke-width="1.5"/><circle cx="132.5" cy="336.4" r="2.8" fill="white" stroke="#75804b" stroke-width="1.5"/><circle cx="167.8" cy="340.0" r="2.8" fill="white" stroke="#75804b" stroke-width="1.5"/><circle cx="203.1" cy="337.7" r="2.8" fill="white" stroke="#75804b" stroke-width="1.5"/><circle cx="238.3" cy="328.2" r="2.8" fill="white" stroke="#75804b" stroke-width="1.5"/><circle cx="273.6" cy="320.4" r="2.8" fill="white" stroke="#75804b" stroke-width="1.5"/><circle cx="308.8" cy="325.4" r="2.8" fill="white" stroke="#75804b" stroke-width="1.5"/><circle cx="344.1" cy="318.6" r="2.8" fill="white" stroke="#75804b" stroke-width="1.5"/><circle cx="379.4" cy="319.0" r="2.8" fill="white" stroke="#75804b" stroke-width="1.5"/><circle cx="414.6" cy="319.0" r="2.8" fill="white" stroke="#75804b" stroke-width="1.5"/><circle cx="449.9" cy="315.8" r="2.8" fill="white" stroke="#75804b" stroke-width="1.5"/><circle cx="485.2" cy="314.0" r="2.8" fill="white" stroke="#75804b" stroke-width="1.5"/><circle cx="520.4" cy="319.9" r="2.8" fill="white" stroke="#75804b" stroke-width="1.5"/><circle cx="555.7" cy="320.4" r="2.8" fill="white" stroke="#75804b" stroke-width="1.5"/><circle cx="590.9" cy="316.7" r="2.8" fill="white" stroke="#75804b" stroke-width="1.5"/><circle cx="626.2" cy="311.7" r="2.8" fill="white" stroke="#75804b" stroke-width="1.5"/><circle cx="661.5" cy="310.8" r="2.8" fill="white" stroke="#75804b" stroke-width="1.5"/><circle cx="696.7" cy="306.7" r="2.8" fill="white" stroke="#75804b" stroke-width="1.5"/><circle cx="732.0" cy="309.4" r="2.8" fill="white" stroke="#75804b" stroke-width="1.5"/><text x="326" y="85" font-family="sans-serif" font-size="13" fill="#75804b">TF</text><polyline points="62.0,336.2 97.3,329.5 132.5,333.1 167.8,337.5 203.1,335.3 238.3,321.5 273.6,310.8 308.8,314.4 344.1,305.4 379.4,305.9 414.6,306.3 449.9,302.3 485.2,298.8 520.4,303.2 555.7,304.1 590.9,297.9 626.2,292.1 661.5,291.6 696.7,284.9 732.0,288.5" fill="none" stroke="#a7657b" stroke-width="2.4" stroke-dasharray="7 4"/><circle cx="62.0" cy="336.2" r="2.8" fill="white" stroke="#a7657b" stroke-width="1.5"/><circle cx="97.3" cy="329.5" r="2.8" fill="white" stroke="#a7657b" stroke-width="1.5"/><circle cx="132.5" cy="333.1" r="2.8" fill="white" stroke="#a7657b" stroke-width="1.5"/><circle cx="167.8" cy="337.5" r="2.8" fill="white" stroke="#a7657b" stroke-width="1.5"/><circle cx="203.1" cy="335.3" r="2.8" fill="white" stroke="#a7657b" stroke-width="1.5"/><circle cx="238.3" cy="321.5" r="2.8" fill="white" stroke="#a7657b" stroke-width="1.5"/><circle cx="273.6" cy="310.8" r="2.8" fill="white" stroke="#a7657b" stroke-width="1.5"/><circle cx="308.8" cy="314.4" r="2.8" fill="white" stroke="#a7657b" stroke-width="1.5"/><circle cx="344.1" cy="305.4" r="2.8" fill="white" stroke="#a7657b" stroke-width="1.5"/><circle cx="379.4" cy="305.9" r="2.8" fill="white" stroke="#a7657b" stroke-width="1.5"/><circle cx="414.6" cy="306.3" r="2.8" fill="white" stroke="#a7657b" stroke-width="1.5"/><circle cx="449.9" cy="302.3" r="2.8" fill="white" stroke="#a7657b" stroke-width="1.5"/><circle cx="485.2" cy="298.8" r="2.8" fill="white" stroke="#a7657b" stroke-width="1.5"/><circle cx="520.4" cy="303.2" r="2.8" fill="white" stroke="#a7657b" stroke-width="1.5"/><circle cx="555.7" cy="304.1" r="2.8" fill="white" stroke="#a7657b" stroke-width="1.5"/><circle cx="590.9" cy="297.9" r="2.8" fill="white" stroke="#a7657b" stroke-width="1.5"/><circle cx="626.2" cy="292.1" r="2.8" fill="white" stroke="#a7657b" stroke-width="1.5"/><circle cx="661.5" cy="291.6" r="2.8" fill="white" stroke="#a7657b" stroke-width="1.5"/><circle cx="696.7" cy="284.9" r="2.8" fill="white" stroke="#a7657b" stroke-width="1.5"/><circle cx="732.0" cy="288.5" r="2.8" fill="white" stroke="#a7657b" stroke-width="1.5"/><text x="458" y="85" font-family="sans-serif" font-size="13" fill="#a7657b">T</text><text x="62.0" y="388" text-anchor="middle" font-family="sans-serif" fill="#64748b" font-size="12">07-23</text><text x="203.1" y="388" text-anchor="middle" font-family="sans-serif" fill="#64748b" font-size="12">07-29</text><text x="344.1" y="388" text-anchor="middle" font-family="sans-serif" fill="#64748b" font-size="12">08-04</text><text x="485.2" y="388" text-anchor="middle" font-family="sans-serif" fill="#64748b" font-size="12">08-10</text><text x="626.2" y="388" text-anchor="middle" font-family="sans-serif" fill="#64748b" font-size="12">08-14</text><text x="732.0" y="388" text-anchor="middle" font-family="sans-serif" fill="#64748b" font-size="12">08-19</text></svg>